<svg width="21" height="24" viewBox="0 0 21 24" fill="none" xmlns="http://www.w3.org/2000/svg">
<path d="M2.73438 23.4375H1.17188C0.861074 23.4375 0.563003 23.314 0.343234 23.0943C0.123465 22.8745 0 22.5764 0 22.2656V15.2344C0 14.9236 0.123465 14.6255 0.343234 14.4057C0.563003 14.186 0.861074 14.0625 1.17188 14.0625H2.73438C3.04518 14.0625 3.34325 14.186 3.56302 14.4057C3.78279 14.6255 3.90625 14.9236 3.90625 15.2344V22.2656C3.90625 22.5764 3.78279 22.8745 3.56302 23.0943C3.34325 23.314 3.04518 23.4375 2.73438 23.4375Z" fill="#4A3DFF"/>
<path d="M13.672 23.4375H12.1095C11.7987 23.4375 11.5006 23.314 11.2809 23.0943C11.0611 22.8745 10.9376 22.5764 10.9376 22.2656V10.5469C10.9376 10.2361 11.0611 9.938 11.2809 9.71823C11.5006 9.49846 11.7987 9.375 12.1095 9.375H13.672C13.9828 9.375 14.2809 9.49846 14.5006 9.71823C14.7204 9.938 14.8439 10.2361 14.8439 10.5469V22.2656C14.8439 22.5764 14.7204 22.8745 14.5006 23.0943C14.2809 23.314 13.9828 23.4375 13.672 23.4375Z" fill="#4A3DFF"/>
<path d="M19.1407 23.4375H17.5782C17.2674 23.4375 16.9693 23.314 16.7495 23.0943C16.5297 22.8745 16.4063 22.5764 16.4063 22.2656V5.07812C16.4063 4.76732 16.5297 4.46925 16.7495 4.24948C16.9693 4.02971 17.2674 3.90625 17.5782 3.90625H19.1407C19.4515 3.90625 19.7495 4.02971 19.9693 4.24948C20.1891 4.46925 20.3125 4.76732 20.3125 5.07812V22.2656C20.3125 22.5764 20.1891 22.8745 19.9693 23.0943C19.7495 23.314 19.4515 23.4375 19.1407 23.4375Z" fill="#4A3DFF"/>
<path d="M8.20334 23.4375H6.64084C6.33004 23.4375 6.03197 23.314 5.8122 23.0943C5.59243 22.8745 5.46896 22.5764 5.46896 22.2656V1.17188C5.46896 0.861074 5.59243 0.563003 5.8122 0.343234C6.03197 0.123465 6.33004 0 6.64084 0H8.20334C8.51414 0 8.81221 0.123465 9.03198 0.343234C9.25175 0.563003 9.37521 0.861074 9.37521 1.17188V22.2656C9.37521 22.5764 9.25175 22.8745 9.03198 23.0943C8.81221 23.314 8.51414 23.4375 8.20334 23.4375Z" fill="#4A3DFF"/>
</svg>
