<svg viewBox="0 0 33 33" fill="none">
<path d="M32.8941 16.4222L32.1155 11.507C31.8335 9.72619 30.9951 8.0803 29.7204 6.80516L26.191 3.27635C24.9193 2.00533 23.279 1.16873 21.5046 0.888362L16.5611 0.105257C14.7879 -0.175759 12.9717 0.112346 11.3713 0.927678L6.91629 3.19707C5.31249 4.01443 4.00862 5.31853 3.19154 6.92246L0.929238 11.362C0.109898 12.9701 -0.179349 14.7963 0.102949 16.5788L0.881543 21.4947C1.16352 23.2755 2.00191 24.9214 3.27662 26.1965L6.80607 29.7253C8.07699 30.996 9.71743 31.8319 11.4925 32.1133L16.436 32.8958C18.2091 33.1768 20.0254 32.8887 21.6258 32.074L26.0808 29.8046C27.6844 28.9871 28.9883 27.683 29.8055 26.0792L32.0678 21.6403C32.887 20.0316 33.1764 18.205 32.8941 16.4222V16.4222ZM11.3429 23.7189C10.204 23.7189 9.28043 22.7953 9.28043 21.6564C9.28043 20.5176 10.204 19.5939 11.3429 19.5939C12.4818 19.5939 13.4054 20.5176 13.4054 21.6564C13.4054 22.7953 12.4818 23.7189 11.3429 23.7189ZM13.4054 13.4064C12.2665 13.4064 11.3429 12.4828 11.3429 11.3439C11.3429 10.2051 12.2665 9.28145 13.4054 9.28145C14.5443 9.28145 15.4679 10.2051 15.4679 11.3439C15.4679 12.4828 14.5443 13.4064 13.4054 13.4064ZM23.7179 21.6564C22.579 21.6564 21.6554 20.7328 21.6554 19.5939C21.6554 18.4551 22.579 17.5314 23.7179 17.5314C24.8568 17.5314 25.7804 18.4551 25.7804 19.5939C25.7804 20.7328 24.8568 21.6564 23.7179 21.6564Z" fill="white"/>
</svg>
