<svg viewBox="0 0 21 21" fill="none" xmlns="http://www.w3.org/2000/svg">
<path d="M0.789185 2.06346C0.789185 1.35985 1.35958 0.789454 2.06319 0.789454H5.58925C6.29286 0.789454 6.86326 1.35985 6.86326 2.06346V5.58952C6.86326 6.29313 6.29287 6.86353 5.58925 6.86353H2.06319C1.35958 6.86353 0.789185 6.29314 0.789185 5.58952V2.06346Z" fill="#4A3DFF"/>
<path d="M0.789246 11.1744C0.789246 10.4708 1.35964 9.90043 2.06325 9.90043H5.58931C6.29293 9.90043 6.86332 10.4708 6.86332 11.1744V14.7005C6.86332 15.4041 6.29293 15.9745 5.58931 15.9745H2.06325C1.35964 15.9745 0.789246 15.4041 0.789246 14.7005V11.1744Z" fill="#4A3DFF"/>
<path d="M9.90046 2.06344C9.90046 1.35982 10.4709 0.789429 11.1745 0.789429H14.7005C15.4041 0.789429 15.9745 1.35982 15.9745 2.06343V5.58949C15.9745 6.29311 15.4041 6.8635 14.7005 6.8635H11.1745C10.4709 6.8635 9.90046 6.29311 9.90046 5.5895V2.06344Z" fill="#4A3DFF"/>
<path d="M9.90046 11.1744C9.90046 10.4708 10.4709 9.90043 11.1745 9.90043H19.2561C19.9597 9.90043 20.5301 10.4708 20.5301 11.1744V19.2561C20.5301 19.9597 19.9597 20.5301 19.2561 20.5301H11.1745C10.4709 20.5301 9.90046 19.9597 9.90046 19.2561V11.1744Z" fill="#4A3DFF"/>
</svg>
