<svg width="19" height="17" viewBox="0 0 19 17" fill="none" xmlns="http://www.w3.org/2000/svg">
<path d="M9.48451 3.12897C9.42998 3.07681 9.35743 3.0477 9.28197 3.0477C9.20651 3.0477 9.13396 3.07681 9.07943 3.12897L2.33657 9.5704C2.30793 9.59779 2.28515 9.63071 2.2696 9.66716C2.25405 9.70361 2.24606 9.74284 2.2461 9.78247L2.24501 15.828C2.24501 16.1388 2.36849 16.4369 2.58829 16.6567C2.80809 16.8765 3.1062 17 3.41704 17H6.9368C7.09223 17 7.24128 16.9383 7.35118 16.8284C7.46108 16.7185 7.52282 16.5694 7.52282 16.414V11.4328C7.52282 11.3551 7.55369 11.2806 7.60864 11.2256C7.66359 11.1707 7.73812 11.1398 7.81583 11.1398H10.7459C10.8236 11.1398 10.8982 11.1707 10.9531 11.2256C11.0081 11.2806 11.0389 11.3551 11.0389 11.4328V16.414C11.0389 16.5694 11.1007 16.7185 11.2106 16.8284C11.3205 16.9383 11.4695 17 11.6249 17H15.1432C15.4541 17 15.7522 16.8765 15.972 16.6567C16.1918 16.4369 16.3153 16.1388 16.3153 15.828V9.78247C16.3153 9.74284 16.3073 9.70361 16.2918 9.66716C16.2762 9.63071 16.2534 9.59779 16.2248 9.5704L9.48451 3.12897Z" fill="#4A3DFF"/>
<path d="M17.885 8.36178L15.1454 5.74081V1.76359C15.1454 1.60817 15.0837 1.45911 14.9738 1.34921C14.8639 1.23931 14.7148 1.17757 14.5594 1.17757H12.8013C12.6459 1.17757 12.4969 1.23931 12.387 1.34921C12.2771 1.45911 12.2153 1.60817 12.2153 1.76359V2.93562L10.0939 0.90727C9.89543 0.706559 9.60022 0.591553 9.28121 0.591553C8.96329 0.591553 8.66882 0.706559 8.47031 0.907636L0.679941 8.36104C0.452127 8.5808 0.423558 8.9423 0.630862 9.18037C0.682919 9.24046 0.746659 9.28933 0.818204 9.32401C0.889748 9.35868 0.9676 9.37844 1.04702 9.38207C1.12644 9.3857 1.20577 9.37314 1.28018 9.34513C1.3546 9.31713 1.42253 9.27428 1.47985 9.21919L9.07977 1.95697C9.1343 1.90481 9.20685 1.8757 9.28231 1.8757C9.35777 1.8757 9.43032 1.90481 9.48485 1.95697L17.0855 9.21919C17.1975 9.32656 17.3474 9.38516 17.5025 9.38214C17.6576 9.37912 17.8052 9.31473 17.9129 9.20308C18.1378 8.97014 18.1191 8.58556 17.885 8.36178Z" fill="#4A3DFF"/>
</svg>
