<svg width="26" height="28" viewBox="0 0 26 28" fill="none" xmlns="http://www.w3.org/2000/svg">
<path d="M24.1429 11.1875H15.7857V2.75C15.7857 1.71465 14.9541 0.875 13.9286 0.875H12.0714C11.0459 0.875 10.2143 1.71465 10.2143 2.75V11.1875H1.85714C0.831652 11.1875 0 12.0271 0 13.0625V14.9375C0 15.9729 0.831652 16.8125 1.85714 16.8125H10.2143V25.25C10.2143 26.2854 11.0459 27.125 12.0714 27.125H13.9286C14.9541 27.125 15.7857 26.2854 15.7857 25.25V16.8125H24.1429C25.1683 16.8125 26 15.9729 26 14.9375V13.0625C26 12.0271 25.1683 11.1875 24.1429 11.1875Z" fill="url(#paint0_linear)"/>
<path d="M24.1429 11.1875H15.7857V2.75C15.7857 1.71465 14.9541 0.875 13.9286 0.875H12.0714C11.0459 0.875 10.2143 1.71465 10.2143 2.75V11.1875H1.85714C0.831652 11.1875 0 12.0271 0 13.0625V14.9375C0 15.9729 0.831652 16.8125 1.85714 16.8125H10.2143V25.25C10.2143 26.2854 11.0459 27.125 12.0714 27.125H13.9286C14.9541 27.125 15.7857 26.2854 15.7857 25.25V16.8125H24.1429C25.1683 16.8125 26 15.9729 26 14.9375V13.0625C26 12.0271 25.1683 11.1875 24.1429 11.1875Z"/>
<defs>
<linearGradient id="paint0_linear" x1="-4.25" y1="14" x2="31.25" y2="14" gradientUnits="userSpaceOnUse">
<stop stop-color="#FF409A"/>
<stop offset="1" stop-color="#C438EF"/>
</linearGradient>
</defs>
</svg>
