<svg viewBox="0 0 95 94" fill="none" xmlns="http://www.w3.org/2000/svg">
<path d="M47.5862 0.499954C60.1411 0.522266 71.5401 5.41864 79.956 13.3784L86.7223 6.68183C89.5868 3.84702 94.4844 5.85477 94.4844 9.86389V35C94.4844 37.4853 92.4487 39.5 89.9375 39.5H64.5396C60.4887 39.5 58.4601 34.6529 61.3244 31.8179L69.2341 23.9898C63.3868 18.5712 55.8206 15.5697 47.7823 15.5011C30.2772 15.3515 15.5216 29.3718 15.673 47.2715C15.8166 64.2516 29.7263 78.5 47.5 78.5C55.2916 78.5 62.6557 75.7478 68.459 70.7082C69.3576 69.928 70.7146 69.9755 71.56 70.8119L79.0741 78.2485C79.9971 79.162 79.9514 80.6513 78.9828 81.5172C70.6516 88.9649 59.611 93.5 47.5 93.5C21.5514 93.5 0.515814 72.6813 0.515625 47.0003C0.515436 21.3486 21.6673 0.454016 47.5862 0.499954Z" fill="#5B5A99"/>
</svg>
